<?xml version="1.0" encoding="iso-8859-1"?>
<!-- Generator: Adobe Illustrator 17.1.0, SVG Export Plug-In . SVG Version: 6.00 Build 0)  -->
<!DOCTYPE svg PUBLIC "-//W3C//DTD SVG 1.1//EN" "http://www.w3.org/Graphics/SVG/1.1/DTD/svg11.dtd">
<svg version="1.1" id="Capa_1" xmlns="http://www.w3.org/2000/svg" xmlns:xlink="http://www.w3.org/1999/xlink" x="0px" y="0px"
	 viewBox="0 0 477.689 477.689" style="enable-background:new 0 0 477.689 477.689;" xml:space="preserve">
<path d="M470.189,90.314H7.5c-4.142,0-7.5,3.358-7.5,7.5v21.032c0,63.798,24.844,123.777,69.956,168.888
	c27.937,27.937,61.578,48.09,98.294,59.395v32.746c0,4.142,3.358,7.5,7.5,7.5h126.188c4.143,0,7.5-3.358,7.5-7.5v-32.782
	c98.974-30.45,168.251-122.381,168.251-228.247V97.814C477.689,93.672,474.332,90.314,470.189,90.314z M462.689,118.846
	c0,101.016-67.293,188.495-162.737,215.408c-0.117,0.032-0.234,0.063-0.348,0.101c-6.556,1.837-13.243,3.394-20.051,4.644
	c-4.073,0.748-6.77,4.657-6.021,8.731c0.749,4.074,4.655,6.771,8.732,6.021c4.102-0.753,8.157-1.621,12.175-2.576v21.199H183.25
	v-21.17c18.002,4.272,36.627,6.485,55.594,6.485c4.143,0,7.5-3.358,7.5-7.5s-3.357-7.5-7.5-7.5
	C115.417,342.69,15,242.274,15,118.846v-13.532h447.689V118.846z M316.105,297.384c-1.664-3.793,0.062-8.217,3.854-9.882
	c7.313-3.209,14.487-6.935,21.326-11.077c3.541-2.146,8.153-1.013,10.3,2.53c2.146,3.543,1.013,8.155-2.53,10.3
	c-7.396,4.479-15.158,8.511-23.068,11.982c-0.98,0.43-2.004,0.634-3.01,0.634C320.091,301.872,317.34,300.196,316.105,297.384z
	 M370.188,264.986c-2.804-3.049-2.604-7.794,0.444-10.597c32.855-30.209,53.605-71.166,58.427-115.325
	c0.45-4.117,4.134-7.091,8.271-6.641c4.117,0.449,7.091,4.152,6.642,8.27c-5.217,47.771-27.656,92.071-63.187,124.739
	c-1.44,1.325-3.26,1.979-5.074,1.979C373.686,267.41,371.667,266.594,370.188,264.986z"/>
<g>
</g>
<g>
</g>
<g>
</g>
<g>
</g>
<g>
</g>
<g>
</g>
<g>
</g>
<g>
</g>
<g>
</g>
<g>
</g>
<g>
</g>
<g>
</g>
<g>
</g>
<g>
</g>
<g>
</g>
</svg>
