<svg id="Layer_3" height="512" viewBox="0 0 512 512" width="512" xmlns="http://www.w3.org/2000/svg" data-name="Layer 3"><circle cx="72" cy="128" r="16"/><circle cx="128" cy="72" r="16"/><path d="m509.463 153.017-1.874-3.747a23.959 23.959 0 0 0 -31.331-11.146l-119.581 54.6.1.226a27.985 27.985 0 0 0 -19.18 36.37l-2.353 1.569c-31.391-15.7-107.523-3.043-178.655 21.7q-6.269 2.18-12.5 4.494c-7.861-29.123 12.482-50.32 13.589-51.443l-11.334-11.292a77.3 77.3 0 0 0 -16.979 29.271 66.627 66.627 0 0 0 -.321 39.26c-12.8 5.111-25.1 10.514-36.739 16.129-6.455-23.962-7.028-48.686-6.149-66.552a27.095 27.095 0 1 0 -54.156-1.356v56.58a4.329 4.329 0 0 1 -4.325 4.32 20.319 20.319 0 0 0 -20.326 20.44 128.959 128.959 0 0 0 6.861 38.122c-12.241 13.105-16.619 24.984-13.01 35.363 13.439 38.638 44.317 68.513 86.945 84.121a189.98 189.98 0 0 0 65.354 11.3 217.867 217.867 0 0 0 71.424-12.3c46.141-16.049 84.453-45.914 107.877-84.093 23.741-38.693 29.414-81.281 15.975-119.919a21.522 21.522 0 0 0 -.9-2.16 27.9 27.9 0 0 0 23.534 4.126l.095.194 1.195-.582a27.91 27.91 0 0 0 6.851-3.337l118.842-57.891a24 24 0 0 0 11.072-32.365zm-493.15 207.651c-1.107-3.181.725-8.033 4.992-13.727a76.744 76.744 0 0 0 18.988 23.382 77.6 77.6 0 0 1 -10.448-1.7c-7.577-1.838-12.381-4.661-13.529-7.951v-.005zm286.642-87.738c-1.686 14.34-4.494 17.294-4.612 17.413l.155.155c-6.623 4.51-13.887 9.008-21.7 13.447a103.433 103.433 0 0 0 10.202-32.945 8.092 8.092 0 0 1 8.009-7 8 8 0 0 1 7.948 8.931zm-157.1 20.191 12.292-10.243a80.666 80.666 0 0 1 -7.8-11.057c3.817-1.409 7.66-2.787 11.5-4.124 43.75-15.217 86.4-24.871 120.082-27.181 15.673-1.074 28.884-.448 38.2 1.813 7.581 1.838 12.386 4.664 13.531 7.957s-.87 8.49-5.672 14.636a83.255 83.255 0 0 1 -9.129 9.693 24.035 24.035 0 0 0 -47.719-5.764c-4.064 29.911-21.746 47.342-26.678 51.682a605.259 605.259 0 0 1 -56.335 22.724q-12.242 4.258-24.316 7.922c-31.607-6.1-53.955-25.2-66.469-56.848 11.932-5.82 24.64-11.416 37.883-16.7a95.974 95.974 0 0 0 10.629 15.491zm-121.255-3.843a4.3 4.3 0 0 1 3.075-1.278 20.348 20.348 0 0 0 20.325-20.325v-56.575a11.107 11.107 0 0 1 11.1-11.1 11.1 11.1 0 0 1 11.08 11.665c-1.144 23.243.045 57.437 12.207 88.342 7.005 17.8 16.913 32.448 29.447 43.533a96.061 96.061 0 0 0 23.838 15.428 432.359 432.359 0 0 1 -54.3 10.217c-2.843.33-8.055-1.076-8.055-1.076-17.868-2.978-31.438-14.267-40.334-33.552a111.486 111.486 0 0 1 -9.632-42.217 4.275 4.275 0 0 1 1.249-3.062zm337.963-57.372 1.874-1.249a8 8 0 1 0 -8.875-13.312l-3.548 2.365a11.994 11.994 0 1 1 19.317 9.77l-4.4 2.145a11.374 11.374 0 0 1 -4.365.282z"/><path d="m104 160h16v16h-16z"/><path d="m96 232h16v16h-16z"/><path d="m144 304h16v16h-16z"/><path d="m16 152h16v16h-16z"/><path d="m83.563 366.656 8.875-13.312c-19.552-13.035-20.415-25.044-20.438-25.549.007.135 0 .205 0 .205h-16c0 2.076.773 20.8 27.563 38.656z"/><path d="m152 152c0-8.158 3.627-17.948 10.489-28.311a101.832 101.832 0 0 1 11.175-14.039l-5.664-5.65-5.657-5.657c-1.075 1.076-26.343 26.657-26.343 53.657z"/></svg>